<?xml version="1.0" standalone="no"?>
<!DOCTYPE svg PUBLIC "-//W3C//DTD SVG 20010904//EN"
 "http://www.w3.org/TR/2001/REC-SVG-20010904/DTD/svg10.dtd">
<svg version="1.0" xmlns="http://www.w3.org/2000/svg"
 width="512.000000pt" height="512.000000pt" viewBox="0 0 512.000000 512.000000"
 preserveAspectRatio="xMidYMid meet">

<g transform="translate(0.000000,512.000000) scale(0.100000,-0.100000)"
fill="#000000" stroke="none">
<path d="M3419 4753 c-131 -135 -214 -310 -254 -536 -15 -81 -17 -133 -12
-290 7 -226 29 -348 106 -588 90 -277 121 -443 121 -630 0 -107 -14 -246 -26
-258 -5 -6 -904 889 -904 901 0 3 33 12 73 18 69 12 337 8 427 -6 51 -8 84 20
84 71 0 76 -54 90 -344 90 -196 -1 -281 -13 -418 -59 -373 -127 -621 -446
-672 -866 -31 -258 5 -525 120 -875 78 -240 95 -343 95 -580 0 -178 -3 -210
-24 -294 l-24 -93 -498 498 c-275 275 -499 502 -499 505 0 8 23 15 139 39 106
23 293 27 431 9 95 -12 121 -4 140 40 13 33 0 75 -27 90 -34 18 -186 33 -323
33 -274 -1 -494 -67 -693 -210 -82 -59 -127 -108 -127 -140 0 -11 9 -31 21
-46 34 -43 73 -36 148 27 34 29 78 62 97 72 l35 19 542 -542 542 -542 -18 -32
c-10 -18 -42 -62 -72 -98 -65 -76 -72 -115 -29 -149 42 -33 69 -27 120 27 125
129 214 313 255 523 19 101 21 136 16 309 -7 229 -28 348 -106 591 -100 311
-126 463 -118 684 7 149 13 205 26 205 11 0 905 -899 899 -905 -24 -24 -299
-33 -433 -14 -66 9 -80 8 -101 -6 -61 -40 -50 -109 21 -133 59 -20 344 -28
457 -12 594 80 941 525 915 1169 -7 173 -34 317 -98 529 -80 261 -87 285 -110
420 -18 108 -20 153 -16 302 3 96 10 193 17 214 l12 39 469 -469 c346 -346
465 -471 454 -476 -27 -16 -162 -27 -321 -28 -175 0 -184 -3 -199 -61 -5 -20
0 -33 18 -55 l25 -29 209 1 c199 1 213 2 324 31 183 49 342 132 453 238 52 50
58 78 25 119 -34 43 -73 36 -149 -28 -35 -30 -97 -72 -137 -93 l-73 -38 -520
520 c-286 286 -520 526 -520 534 0 23 74 140 129 206 61 71 67 111 25 144 -42
33 -64 26 -125 -36z m-123 -2503 c-35 -83 -99 -174 -181 -256 -73 -73 -107
-99 -181 -137 l-90 -46 -517 517 -516 517 46 88 c74 142 203 269 351 343 l67
34 516 -516 c506 -506 517 -517 505 -544z"/>
</g>
</svg>
