<?xml version="1.0" standalone="no"?>
<!DOCTYPE svg PUBLIC "-//W3C//DTD SVG 20010904//EN"
 "http://www.w3.org/TR/2001/REC-SVG-20010904/DTD/svg10.dtd">
<svg version="1.0" xmlns="http://www.w3.org/2000/svg"
 width="512.000000pt" height="512.000000pt" viewBox="0 0 512.000000 512.000000"
 preserveAspectRatio="xMidYMid meet">

<g transform="translate(0.000000,512.000000) scale(0.100000,-0.100000)"
fill="#000000" stroke="none">
<path d="M1425 4599 c-316 -34 -681 -259 -860 -528 -112 -170 -184 -333 -221
-506 -23 -109 -23 -331 0 -440 65 -297 223 -565 484 -817 l100 -97 -51 -63
c-27 -35 -58 -81 -68 -103 -25 -55 -24 -140 3 -212 43 -116 195 -233 302 -233
32 0 35 -3 41 -40 24 -142 166 -280 305 -297 l48 -5 5 -48 c17 -142 162 -288
304 -307 38 -5 40 -6 51 -59 6 -29 18 -70 28 -89 28 -59 99 -129 166 -165 53
-29 76 -35 145 -38 115 -6 169 20 254 124 l61 75 96 -100 c122 -125 167 -145
308 -139 79 3 100 8 160 38 37 18 89 54 114 80 56 55 107 155 117 228 l8 53
66 22 c108 37 176 93 235 193 16 26 33 68 39 92 11 44 13 46 79 68 158 53 271
185 293 340 5 41 7 43 47 50 130 21 250 112 308 233 60 126 50 263 -29 378
l-44 65 53 56 c106 112 218 274 287 417 250 510 162 993 -260 1430 -88 90
-137 132 -199 169 -336 199 -740 240 -1100 110 -159 -57 -356 -175 -488 -293
-117 -103 -102 -99 -169 -38 -333 302 -671 434 -1018 396z m2365 -265 c275
-70 500 -257 636 -529 61 -123 84 -214 91 -367 14 -298 -77 -541 -301 -807
-67 -79 -71 -82 -86 -64 -135 165 -628 738 -658 765 -63 57 -118 81 -182 81
-77 -1 -135 -27 -302 -137 -271 -178 -483 -282 -676 -333 -128 -34 -269 -35
-355 -5 -59 22 -157 86 -157 103 0 15 675 704 896 913 272 259 405 347 574
381 196 40 360 39 520 -1z m-2029 -48 c174 -44 296 -108 456 -238 103 -83 105
-90 51 -147 -25 -25 -177 -185 -339 -356 -163 -170 -323 -337 -358 -370 -35
-33 -72 -77 -82 -97 -22 -44 -25 -118 -5 -157 15 -28 83 -94 124 -121 22 -14
17 -15 -60 -12 -75 3 -89 0 -138 -25 -46 -23 -74 -52 -173 -173 -66 -80 -122
-146 -126 -148 -4 -1 -49 37 -100 85 -283 264 -420 587 -382 900 15 119 52
246 105 359 59 124 110 196 197 279 142 135 292 213 467 245 81 15 258 4 363
-24z m1546 -1225 c45 -28 792 -868 814 -916 44 -95 -1 -193 -96 -211 -76 -14
-85 -6 -399 365 -162 191 -307 353 -322 361 -38 21 -109 17 -142 -7 -65 -48
-86 -112 -58 -176 8 -18 148 -180 310 -362 163 -181 303 -345 312 -364 28 -59
29 -102 2 -141 -28 -41 -62 -55 -111 -46 -32 6 -66 43 -332 357 -163 192 -310
356 -325 364 -37 19 -103 19 -140 0 -72 -37 -98 -142 -50 -207 13 -18 148
-179 300 -358 152 -179 283 -336 293 -350 21 -30 22 -91 2 -129 -14 -28 -68
-61 -99 -61 -9 0 -31 6 -49 14 -43 18 -244 259 -278 334 -46 101 -152 186
-258 207 l-55 11 -13 57 c-7 31 -21 74 -32 95 -43 83 -161 174 -245 187 -72
11 -73 12 -79 64 -17 141 -164 285 -307 299 l-48 4 -16 65 c-15 64 -37 104
-83 154 l-25 27 69 -21 c92 -27 372 -29 510 -4 280 52 509 154 663 294 38 35
88 75 112 88 54 31 129 34 175 6z m-1715 -526 c51 -34 76 -100 59 -156 -16
-54 -360 -513 -400 -534 -111 -57 -239 38 -217 160 5 25 63 110 185 273 175
233 201 264 231 275 40 15 106 6 142 -18z m348 -330 c59 -30 90 -98 75 -165
-10 -43 -356 -505 -398 -530 -110 -68 -256 45 -216 167 16 49 361 508 396 527
36 20 106 20 143 1z m365 -364 c57 -32 88 -115 66 -174 -5 -13 -91 -133 -191
-266 -141 -189 -189 -246 -215 -257 -91 -38 -180 6 -210 104 -16 54 5 91 184
330 98 130 187 245 198 255 44 39 108 42 168 8z m365 -359 c62 -46 75 -138 29
-204 -138 -195 -346 -462 -372 -478 -71 -44 -165 -15 -205 63 -41 79 -34 95
167 364 98 131 186 246 197 255 45 39 131 39 184 0z m341 -497 c33 -70 19
-144 -35 -194 -37 -34 -118 -41 -172 -13 -35 18 -144 121 -144 137 0 3 45 61
101 130 l101 124 65 -72 c36 -40 74 -90 84 -112z"/>
</g>
</svg>
